<?xml version="1.0" standalone="no"?>
<!DOCTYPE svg PUBLIC "-//W3C//DTD SVG 1.1//EN" "http://www.w3.org/Graphics/SVG/1.1/DTD/svg11.dtd">
<svg version="1.0" xmlns="http://www.w3.org/2000/svg"
 width="184.320000pt" height="184.320000pt" viewBox="0 0 184.320000 184.320000"
 preserveAspectRatio="xMidYMid meet">
<metadata>
Created by potrace 1.16, written by Peter Selinger 2001-2019
</metadata>
<g transform="translate(0.000000,184.320000) scale(0.072000,-0.072000)"
fill="#000000" stroke="none">
<path d="M1086 2395 c-233 -48 -445 -164 -606 -331 -185 -192 -282 -394 -311
-648 -50 -442 196 -892 599 -1099 194 -100 343 -132 577 -124 195 6 295 31
460 111 316 155 535 433 612 780 22 100 22 326 -1 431 -94 429 -401 747 -836
866 -99 27 -390 36 -494 14z m314 -195 c206 -26 373 -106 524 -249 210 -201
317 -498 277 -771 -54 -367 -321 -663 -688 -761 -117 -32 -305 -30 -434 4
-345 90 -597 360 -671 716 -56 269 33 566 230 774 160 167 352 262 587 290 60
8 92 7 175 -3z"/>
<path d="M690 1325 l0 -355 95 0 95 0 0 132 0 133 133 -133 132 -132 125 0
125 0 -188 188 -189 189 174 166 173 167 -118 0 -119 0 -124 -122 -124 -121 0
121 0 122 -95 0 -95 0 0 -355z"/>
<path d="M1527 1509 c-133 -70 -170 -316 -67 -457 40 -56 94 -82 169 -82 70 0
106 12 144 48 l27 26 0 -33 c0 -46 -28 -99 -61 -116 -41 -22 -148 -19 -211 5
-29 11 -57 20 -61 20 -4 0 -7 -30 -5 -67 l3 -68 45 -12 c67 -17 237 -16 299 3
62 18 127 73 152 129 17 36 19 71 19 323 l0 282 -90 0 -90 0 0 -27 0 -27 -27
26 c-38 37 -74 48 -146 48 -42 -1 -74 -7 -100 -21z m231 -131 c29 -32 42 -71
42 -128 0 -94 -39 -150 -102 -150 -52 0 -77 15 -94 55 -17 41 -19 148 -3 178
25 48 51 67 94 67 30 0 47 -6 63 -22z"/>
</g>
</svg>
