<?xml version="1.0" standalone="no"?>
<!DOCTYPE svg PUBLIC "-//W3C//DTD SVG 1.1//EN" "http://www.w3.org/Graphics/SVG/1.1/DTD/svg11.dtd">
<svg version="1.0" xmlns="http://www.w3.org/2000/svg"
 width="184.320000pt" height="184.320000pt" viewBox="0 0 184.320000 184.320000"
 preserveAspectRatio="xMidYMid meet">
<metadata>
Created by potrace 1.16, written by Peter Selinger 2001-2019
</metadata>
<g transform="translate(0.000000,184.320000) scale(0.072000,-0.072000)"
fill="#000000" stroke="none">
<path d="M1086 2395 c-233 -48 -445 -164 -606 -331 -185 -192 -282 -394 -311
-648 -50 -442 196 -892 599 -1099 194 -100 343 -132 577 -124 195 6 295 31
460 111 316 155 535 433 612 780 22 100 22 326 -1 431 -94 429 -401 747 -836
866 -99 27 -390 36 -494 14z m314 -195 c206 -26 373 -106 524 -249 210 -201
317 -498 277 -771 -54 -367 -321 -663 -688 -761 -117 -32 -305 -30 -434 4
-345 90 -597 360 -671 716 -56 269 33 566 230 774 160 167 352 262 587 290 60
8 92 7 175 -3z"/>
<path d="M1370 1300 l0 -370 90 0 90 0 0 31 0 31 35 -30 c40 -36 82 -46 165
-40 74 5 121 39 165 119 28 51 30 60 30 164 0 96 -3 116 -24 155 -49 93 -105
130 -200 130 -70 0 -106 -12 -143 -48 l-28 -26 0 127 0 127 -90 0 -90 0 0
-370z m342 49 c29 -16 49 -73 49 -144 0 -71 -20 -128 -49 -144 -12 -6 -38 -11
-60 -11 -65 0 -102 56 -102 155 0 99 37 155 102 155 22 0 48 -5 60 -11z"/>
<path d="M760 1285 l0 -355 255 0 255 0 0 70 0 70 -160 0 -160 0 0 285 0 285
-95 0 -95 0 0 -355z"/>
</g>
</svg>
